<?xml version="1.0" encoding="UTF-8"?><svg id="Ebene_1" xmlns="http://www.w3.org/2000/svg" viewBox="0 0 223.5 76.03"><defs><style>.cls-1{fill:#003e77;stroke-width:0px;}</style></defs><polygon class="cls-1" points="31 68.63 6.41 53.32 6.41 22.71 31 7.4 44.94 16.1 57.27 16.1 31 0 0 19.01 0 57.02 31 76.03 57.27 59.93 44.94 59.93 31 68.63"/><rect class="cls-1" x="206.81" y="21.48" width="6.43" height="33.53"/><path class="cls-1" d="M137.75,30.17c-2.38,0-4.53.53-6.46,1.58s-3.42,2.58-4.47,4.57-1.58,4.06-1.58,6.2c0,2.79.53,5.16,1.58,7.1,1.05,1.94,2.59,3.42,4.61,4.43,2.02,1.01,4.14,1.51,6.37,1.51,3.6,0,6.58-1.21,8.95-3.62,2.37-2.42,3.56-5.46,3.56-9.14s-1.17-6.66-3.52-9.04c-2.35-2.39-5.36-3.58-9.03-3.58ZM141.99,48.4c-1.14,1.28-2.54,1.92-4.22,1.92s-3.09-.64-4.23-1.92c-1.14-1.28-1.72-3.12-1.72-5.53s.57-4.25,1.72-5.54c1.14-1.28,2.55-1.92,4.23-1.92s3.08.64,4.22,1.92c1.14,1.28,1.7,3.11,1.7,5.49s-.57,4.3-1.7,5.58Z"/><rect class="cls-1" x="114.9" y="21.48" width="6.43" height="33.53"/><path class="cls-1" d="M195.65,52.35c.05.12.12.37.23.76.24.84.45,1.47.62,1.9h6.36c-.56-1.16-.95-2.24-1.15-3.26-.21-1.01-.31-2.59-.31-4.72l.07-7.5c0-2.79-.29-4.71-.86-5.75-.57-1.04-1.56-1.91-2.96-2.58-1.4-.68-3.54-1.02-6.4-1.02-3.16,0-5.53.57-7.14,1.69s-2.73,2.87-3.38,5.21l5.83,1.05c.4-1.13.91-1.92,1.55-2.37.64-.45,1.53-.67,2.68-.67,1.69,0,2.84.26,3.45.79s.92,1.41.92,2.64v.64c-1.16.49-3.24,1.01-6.24,1.58-2.23.43-3.93.93-5.11,1.5-1.18.57-2.1,1.4-2.76,2.47-.66,1.07-.98,2.3-.98,3.67,0,2.07.72,3.79,2.16,5.15,1.44,1.36,3.41,2.03,5.91,2.03,1.42,0,2.75-.27,4-.8,1.25-.53,2.42-1.33,3.52-2.4ZM187.49,50.04c-.67-.66-1.01-1.43-1.01-2.33s.42-1.67,1.26-2.26c.55-.37,1.72-.74,3.5-1.12,1.78-.38,3.09-.71,3.91-.98v1.28c0,1.54-.08,2.58-.25,3.13-.24.84-.75,1.55-1.53,2.13-1.05.76-2.16,1.14-3.32,1.14-1.04,0-1.89-.33-2.56-.98Z"/><path class="cls-1" d="M95.04,42.68h7.75v4.25c-1.02.79-2.25,1.47-3.67,2.02-1.43.56-2.85.83-4.27.83-2.87,0-5.18-.99-6.95-2.98-1.77-1.99-2.65-4.97-2.65-8.95,0-3.69.87-6.47,2.62-8.35,1.75-1.88,4.1-2.81,7.06-2.81,1.95,0,3.58.48,4.88,1.43,1.3.95,2.19,2.25,2.66,3.9l6.72-1.26c-.67-3.08-2.18-5.49-4.52-7.24-2.34-1.75-5.59-2.62-9.75-2.62-3.2,0-5.88.56-8.03,1.67-2.82,1.45-4.96,3.53-6.43,6.24-1.46,2.71-2.2,5.82-2.2,9.31,0,3.22.65,6.19,1.97,8.93,1.31,2.74,3.27,4.84,5.88,6.31s5.66,2.21,9.17,2.21c2.76,0,5.48-.52,8.18-1.57,2.69-1.04,4.74-2.25,6.16-3.62v-13.36h-14.59v5.65Z"/><path class="cls-1" d="M167.4,30.17c-2.71,0-5.06,1.13-7.04,3.38v-12.07h-6.43v33.53h5.97v-3.57c.98,1.36,2.14,2.38,3.49,3.08,1.35.69,2.72,1.04,4.11,1.04,2.82,0,5.22-1.12,7.19-3.36,1.97-2.24,2.96-5.43,2.96-9.58s-.97-7.09-2.9-9.23c-1.94-2.14-4.38-3.21-7.34-3.21ZM169.57,48.66c-1,1.21-2.21,1.82-3.62,1.82-1.85,0-3.32-.85-4.44-2.56-.79-1.2-1.19-3.07-1.19-5.58s.51-4.26,1.53-5.46c1.02-1.2,2.3-1.79,3.84-1.79s2.86.61,3.86,1.84c1.01,1.23,1.51,3.23,1.51,6,0,2.61-.5,4.52-1.5,5.73Z"/><path class="cls-1" d="M219.96,24.03h.12c.14,0,.24.01.31.03.07.02.13.07.19.13.06.06.17.21.32.45l.45.66h.74l-.37-.59c-.15-.24-.26-.4-.35-.5-.09-.09-.2-.18-.33-.26.27-.04.47-.13.6-.28.13-.15.2-.34.2-.57,0-.18-.04-.34-.13-.48-.09-.14-.21-.24-.35-.29s-.38-.08-.71-.08h-1.3v3.05h.62v-1.27ZM219.96,22.77h.48c.25,0,.4,0,.45.01.1.02.18.06.23.12.05.06.08.15.08.25,0,.09-.02.17-.06.23s-.1.1-.17.13-.26.04-.55.04h-.46v-.77Z"/><path class="cls-1" d="M220.54,26.74c1.63,0,2.96-1.32,2.96-2.96s-1.32-2.96-2.96-2.96-2.96,1.32-2.96,2.96,1.32,2.96,2.96,2.96ZM220.54,21.41c1.31,0,2.38,1.06,2.38,2.38s-1.06,2.38-2.38,2.38-2.38-1.06-2.38-2.38,1.06-2.38,2.38-2.38Z"/><path class="cls-1" d="M68.87,24.95c-1.4-1.49-3.09-2.52-5.05-3.1-1.46-.43-3.59-.64-6.38-.64h-12.37v33.66h12.73c2.5,0,4.5-.24,5.99-.71,2-.64,3.58-1.54,4.76-2.69,1.55-1.52,2.75-3.5,3.59-5.95.69-2,1.03-4.39,1.03-7.16,0-3.15-.37-5.8-1.1-7.96-.73-2.15-1.8-3.97-3.2-5.45ZM65.49,44.22c-.46,1.51-1.05,2.59-1.77,3.25-.72.66-1.63,1.12-2.73,1.4-.84.21-2.2.32-4.09.32h-5.05v-22.29h3.04c2.76,0,4.61.11,5.55.32,1.27.28,2.31.8,3.13,1.58.82.78,1.46,1.87,1.92,3.26.46,1.39.68,3.39.68,5.99s-.23,4.66-.68,6.16Z"/><path class="cls-1" d="M30.97,50.02c-1.24,0-2.3-.42-3.18-1.27-.88-.84-1.41-2.06-1.61-3.65l-6.27.76c.32,2.84,1.49,5.13,3.5,6.89,2.01,1.76,4.55,2.63,7.6,2.63,3.23,0,5.92-1.04,8.09-3.13,2.17-2.08,3.25-4.61,3.25-7.56,0-2.04-.58-3.78-1.74-5.22-1.16-1.44-2.71-2.37-4.64-2.78,3.24-1.76,4.86-4.12,4.86-7.08,0-2.09-.79-3.96-2.37-5.61-1.92-2.02-4.47-3.04-7.65-3.04-1.86,0-3.54.35-5.03,1.05-1.5.7-2.67,1.66-3.5,2.87-.84,1.22-1.46,2.85-1.88,4.89l5.97,1.01c.17-1.47.65-2.59,1.43-3.36.78-.77,1.73-1.15,2.83-1.15s2.02.34,2.7,1.01c.68.67,1.01,1.58,1.01,2.71,0,1.33-.46,2.4-1.38,3.21-.92.8-2.26,1.18-4.01,1.14l-.71,5.26c1.15-.32,2.14-.48,2.97-.48,1.26,0,2.33.48,3.2,1.43.88.95,1.31,2.24,1.31,3.86,0,1.72-.46,3.08-1.37,4.09-.91,1.01-2.04,1.52-3.38,1.52Z"/><polygon class="cls-1" points="218.01 59.9 198.75 59.9 189.83 65.34 223.5 65.34 223.5 44.81 218.01 48.16 218.01 59.9"/></svg>